<svg width="396" height="424" viewBox="0 0 396 424" fill="none" xmlns="http://www.w3.org/2000/svg">
<g filter="url(#filter0_f_36_1523)">
<path d="M197.96 100C201.747 100 204.817 103.071 204.817 106.857V140.406L224.375 120.849C227.053 118.171 231.394 118.171 234.072 120.849C236.75 123.526 236.75 127.868 234.072 130.546L204.817 159.801V180.739C211.38 182.172 217.19 185.618 221.567 190.398L239.723 179.917L250.43 139.955C251.411 136.297 255.171 134.126 258.829 135.106C262.487 136.087 264.658 139.847 263.677 143.505L256.52 170.22L285.572 153.446C288.852 151.553 293.047 152.676 294.94 155.956C296.833 159.236 295.709 163.429 292.429 165.322L263.217 182.188L290.182 189.414C293.84 190.394 296.012 194.154 295.032 197.812C294.052 201.47 290.291 203.641 286.634 202.661L246.42 191.886L228.448 202.261C229.428 205.332 229.96 208.604 229.96 212C229.96 215.385 229.432 218.646 228.459 221.708L246.391 232.062L286.602 221.286C290.26 220.306 294.019 222.477 295 226.135C295.98 229.793 293.809 233.553 290.151 234.533L263.187 241.759L292.398 258.624C295.678 260.518 296.802 264.712 294.909 267.991C293.015 271.271 288.82 272.395 285.541 270.501L256.489 253.728L263.646 280.441C264.626 284.099 262.456 287.86 258.798 288.84C255.14 289.82 251.378 287.649 250.398 283.991L239.692 244.03L221.59 233.578C217.21 238.371 211.392 241.825 204.818 243.261V264.199L234.073 293.453C236.751 296.131 236.751 300.474 234.073 303.151C231.395 305.829 227.054 305.829 224.376 303.151L204.818 283.594V317.143C204.818 320.93 201.748 324 197.961 324C194.174 324 191.103 320.93 191.103 317.143V283.412L171.364 303.151C168.686 305.829 164.345 305.829 161.667 303.151C158.989 300.473 158.989 296.131 161.667 293.453L191.103 264.017V243.261C184.508 241.821 178.672 238.35 174.288 233.532L156.326 243.902L145.552 284.114C144.571 287.772 140.811 289.943 137.153 288.963C133.496 287.983 131.325 284.223 132.304 280.565L139.53 253.6L110.317 270.466C107.038 272.359 102.844 271.235 100.951 267.955C99.0577 264.676 100.181 260.482 103.461 258.589L132.515 241.814L105.799 234.655C102.141 233.675 99.9701 229.915 100.95 226.258C101.93 222.6 105.69 220.429 109.348 221.409L149.311 232.117L167.441 221.648C166.48 218.604 165.96 215.362 165.96 212C165.96 208.626 166.483 205.375 167.451 202.321L149.278 191.829L109.318 202.537C105.66 203.517 101.899 201.346 100.919 197.688C99.9387 194.031 102.11 190.27 105.767 189.29L132.482 182.132L103.429 165.358C100.15 163.465 99.0263 159.271 100.92 155.991C102.813 152.712 107.007 151.589 110.287 153.482L139.499 170.348L132.273 143.382C131.293 139.724 133.464 135.965 137.122 134.984C140.78 134.004 144.54 136.175 145.52 139.833L156.295 180.045L174.309 190.445C178.691 185.64 184.519 182.177 191.103 180.739V159.983L161.666 130.546C158.988 127.868 158.988 123.526 161.666 120.849C164.344 118.171 168.685 118.171 171.363 120.849L191.103 140.588V106.857C191.104 103.071 194.173 100 197.96 100ZM197.96 193.714C187.861 193.714 179.674 201.901 179.674 212C179.674 215.195 180.494 218.199 181.934 220.812C181.994 220.906 182.053 221.001 182.109 221.099C182.168 221.201 182.225 221.305 182.278 221.409C185.476 226.728 191.302 230.286 197.96 230.286C204.484 230.286 210.209 226.869 213.445 221.727C213.536 221.526 213.637 221.328 213.75 221.134C213.864 220.935 213.988 220.745 214.119 220.562C215.475 218.008 216.245 215.094 216.245 212C216.245 201.901 208.058 193.714 197.96 193.714Z" fill="url(#paint0_linear_36_1523)"/>
</g>
<path d="M197.961 100C201.747 100 204.818 103.071 204.818 106.857V140.405L224.375 120.849C227.053 118.171 231.395 118.171 234.073 120.849C236.75 123.526 236.749 127.868 234.072 130.546L204.818 159.8V180.739C211.381 182.172 217.191 185.618 221.568 190.398L239.722 179.918L250.43 139.955C251.411 136.297 255.171 134.127 258.829 135.106C262.486 136.087 264.657 139.847 263.677 143.505L256.519 170.22L285.573 153.446C288.852 151.553 293.046 152.676 294.939 155.955C296.833 159.235 295.709 163.43 292.429 165.323L263.218 182.188L290.182 189.414C293.84 190.394 296.011 194.155 295.031 197.812C294.051 201.47 290.291 203.641 286.634 202.661L246.421 191.886L228.449 202.262C229.429 205.333 229.96 208.604 229.96 212C229.96 215.385 229.432 218.646 228.459 221.708L246.39 232.061L286.602 221.286C290.26 220.306 294.021 222.477 295.001 226.135C295.981 229.793 293.81 233.553 290.152 234.533L263.186 241.758L292.398 258.624C295.678 260.518 296.801 264.711 294.908 267.991C293.014 271.271 288.821 272.394 285.542 270.501L256.488 253.727L263.646 280.441C264.626 284.099 262.455 287.86 258.798 288.84C255.14 289.82 251.379 287.648 250.399 283.99L239.691 244.029L221.59 233.577C217.21 238.371 211.391 241.825 204.817 243.261V264.198L234.072 293.453C236.75 296.131 236.75 300.473 234.072 303.151C231.394 305.829 227.053 305.829 224.375 303.151L204.817 283.594V317.143C204.817 320.93 201.748 324 197.961 324C194.174 324 191.103 320.93 191.103 317.143V283.412L171.364 303.151C168.686 305.829 164.344 305.829 161.666 303.151C158.988 300.473 158.988 296.131 161.666 293.453L191.103 264.017V243.261C184.508 241.821 178.672 238.35 174.288 233.532L156.326 243.903L145.552 284.114C144.571 287.772 140.811 289.943 137.153 288.963C133.495 287.983 131.324 284.222 132.304 280.564L139.53 253.601L110.317 270.466C107.037 272.359 102.844 271.235 100.951 267.955C99.0578 264.676 100.181 260.483 103.46 258.589L132.514 241.814L105.8 234.656C102.142 233.676 99.9709 229.916 100.951 226.258C101.931 222.6 105.69 220.429 109.348 221.409L149.31 232.117L167.441 221.648C166.48 218.604 165.96 215.362 165.96 212C165.96 208.626 166.483 205.375 167.451 202.321L149.278 191.83L109.317 202.538C105.659 203.518 101.899 201.346 100.919 197.688C99.9386 194.031 102.11 190.27 105.767 189.29L132.481 182.132L103.429 165.358C100.15 163.465 99.0262 159.271 100.92 155.991C102.813 152.712 107.007 151.588 110.287 153.481L139.499 170.348L132.274 143.382C131.294 139.724 133.465 135.964 137.123 134.983C140.781 134.004 144.54 136.174 145.52 139.832L156.296 180.045L174.309 190.445C178.691 185.64 184.519 182.177 191.103 180.739V159.982L161.667 130.546C158.989 127.868 158.989 123.526 161.667 120.849C164.345 118.171 168.686 118.171 171.364 120.849L191.103 140.588V106.857C191.104 103.071 194.174 100 197.961 100ZM197.96 193.714C187.861 193.714 179.674 201.901 179.674 212C179.674 215.189 180.49 218.188 181.926 220.798C181.989 220.896 182.05 220.996 182.109 221.099C182.168 221.201 182.225 221.305 182.278 221.409C185.476 226.728 191.302 230.286 197.96 230.286C204.484 230.286 210.209 226.869 213.445 221.728C213.536 221.527 213.637 221.329 213.75 221.135C213.866 220.934 213.99 220.741 214.122 220.557C215.476 218.003 216.245 215.092 216.245 212C216.245 201.901 208.058 193.714 197.96 193.714Z" fill="url(#paint1_linear_36_1523)"/>
<defs>
<filter id="filter0_f_36_1523" x="0" y="0" width="395.86" height="424" filterUnits="userSpaceOnUse" color-interpolation-filters="sRGB">
<feFlood flood-opacity="0" result="BackgroundImageFix"/>
<feBlend mode="normal" in="SourceGraphic" in2="BackgroundImageFix" result="shape"/>
<feGaussianBlur stdDeviation="50" result="effect1_foregroundBlur_36_1523"/>
</filter>
<linearGradient id="paint0_linear_36_1523" x1="70.6208" y1="346.4" x2="324.412" y2="134.14" gradientUnits="userSpaceOnUse">
<stop stop-color="#004166"/>
<stop offset="1" stop-color="#00A4FF"/>
</linearGradient>
<linearGradient id="paint1_linear_36_1523" x1="70.6209" y1="346.4" x2="324.412" y2="134.14" gradientUnits="userSpaceOnUse">
<stop stop-color="#004166"/>
<stop offset="1" stop-color="#00A4FF"/>
</linearGradient>
</defs>
</svg>
