<svg width="240" height="240" viewBox="0 0 240 240" fill="none" xmlns="http://www.w3.org/2000/svg">
<g clip-path="url(#clip0_36_1523)">
<g filter="url(#filter0_f_36_1523)">
<path d="M119.96 8C123.747 8 126.817 11.0706 126.817 14.8574V48.4062L146.375 28.8486C149.053 26.171 153.394 26.1711 156.072 28.8486C158.75 31.5265 158.75 35.868 156.072 38.5459L126.817 67.8008V88.7393C133.38 90.1723 139.19 93.6177 143.567 98.3984L161.723 87.917L172.43 47.9551C173.411 44.2973 177.171 42.1263 180.829 43.1064C184.487 44.0866 186.658 47.8469 185.678 51.5049L178.52 78.2197L207.572 61.4463C210.852 59.5527 215.047 60.6763 216.94 63.9561C218.833 67.2356 217.709 71.4288 214.43 73.3223L185.217 90.1885L212.182 97.4141C215.84 98.3942 218.012 102.154 217.032 105.812C216.052 109.47 212.291 111.641 208.634 110.661L168.42 99.8857L150.448 110.261C151.428 113.332 151.96 116.604 151.96 120C151.96 123.385 151.433 126.646 150.459 129.708L168.391 140.062L208.602 129.286C212.26 128.306 216.019 130.477 217 134.135C217.98 137.793 215.809 141.553 212.151 142.533L185.187 149.759L214.398 166.624C217.678 168.518 218.802 172.712 216.909 175.991C215.015 179.271 210.821 180.395 207.541 178.501L178.489 161.728L185.646 188.441C186.626 192.099 184.456 195.86 180.798 196.84C177.14 197.82 173.378 195.649 172.398 191.991L161.692 152.03L143.59 141.578C139.21 146.371 133.392 149.825 126.818 151.261V172.199L156.073 201.453C158.751 204.131 158.751 208.474 156.073 211.151C153.395 213.829 149.054 213.829 146.376 211.151L126.818 191.594V225.143C126.818 228.93 123.748 232 119.961 232C116.174 232 113.103 228.93 113.103 225.143V191.412L93.3641 211.151C90.6863 213.829 86.3447 213.829 83.6668 211.151C80.9889 208.473 80.9889 204.131 83.6668 201.453L113.103 172.017V151.261C106.508 149.821 100.672 146.35 96.2879 141.532L78.326 151.902L67.5516 192.114C66.5713 195.772 62.811 197.943 59.1531 196.963C55.4956 195.983 53.3249 192.223 54.3045 188.565L61.5301 161.6L32.3172 178.466C29.0376 180.359 24.8445 179.235 22.951 175.955C21.0578 172.676 22.1814 168.482 25.4608 166.589L54.5154 149.814L27.7986 142.655C24.1412 141.675 21.9702 137.915 22.95 134.258C23.9302 130.6 27.6905 128.429 31.3484 129.409L71.3113 140.117L89.4412 129.648C88.4796 126.604 87.9598 123.362 87.9598 120C87.9598 116.626 88.4831 113.375 89.451 110.321L71.2781 99.8291L31.3182 110.537C27.6602 111.517 23.899 109.346 22.9188 105.688C21.9388 102.031 24.1096 98.2703 27.7674 97.29L54.4822 90.1318L25.4295 73.3584C22.15 71.4648 21.0263 67.2708 22.9197 63.9912C24.8134 60.7118 29.0073 59.5889 32.2869 61.4824L61.4988 78.3477L54.2733 51.3818C53.2934 47.7242 55.4645 43.9649 59.1219 42.9844C62.7799 42.0042 66.5401 44.175 67.5203 47.833L78.2947 88.0449L96.3094 98.4453C100.692 93.6399 106.519 90.1769 113.103 88.7393V67.9834L83.6658 38.5459C80.9885 35.8681 80.9883 31.5264 83.6658 28.8486C86.3436 26.1711 90.6852 26.1713 93.3631 28.8486L113.103 48.5879V14.8574C113.104 11.0708 116.173 8.00031 119.96 8ZM119.96 101.714C109.861 101.714 101.674 109.901 101.674 120C101.674 123.195 102.494 126.199 103.934 128.812C103.994 128.906 104.053 129.001 104.109 129.099C104.168 129.201 104.225 129.305 104.278 129.409C107.476 134.728 113.302 138.286 119.96 138.286C126.484 138.286 132.209 134.869 135.445 129.727C135.536 129.526 135.638 129.328 135.75 129.134C135.864 128.935 135.988 128.745 136.119 128.562C137.475 126.008 138.245 123.094 138.245 120C138.245 109.901 130.058 101.714 119.96 101.714Z" fill="url(#paint0_linear_36_1523)"/>
</g>
<path d="M119.961 8C123.748 8.00022 126.818 11.0707 126.818 14.8574V48.4053L146.375 28.8486C149.053 26.1712 153.395 26.171 156.073 28.8486C158.751 31.5264 158.75 35.8681 156.072 38.5459L126.818 67.7998V88.7393C133.381 90.1724 139.191 93.6176 143.568 98.3984L161.723 87.918L172.431 47.9551C173.411 44.2974 177.171 42.1265 180.829 43.1064C184.487 44.0868 186.657 47.8471 185.678 51.5049L178.519 78.2197L207.573 61.4463C210.853 59.5531 215.046 60.676 216.939 63.9551C218.833 67.2348 217.709 71.4297 214.43 73.3232L185.218 90.1885L212.182 97.4141C215.84 98.3942 218.011 102.155 217.031 105.812C216.051 109.47 212.291 111.641 208.634 110.661L168.421 99.8857L150.449 110.262C151.429 113.333 151.96 116.604 151.96 120C151.96 123.385 151.433 126.646 150.459 129.708L168.39 140.061L208.602 129.286C212.26 128.306 216.021 130.477 217.001 134.135C217.981 137.793 215.81 141.553 212.152 142.533L185.186 149.758L214.398 166.624C217.678 168.518 218.802 172.711 216.908 175.991C215.015 179.271 210.821 180.394 207.542 178.501L178.488 161.727L185.646 188.441C186.626 192.099 184.455 195.86 180.798 196.84C177.14 197.82 173.379 195.648 172.399 191.99L161.691 152.029L143.59 141.577C139.21 146.371 133.392 149.825 126.817 151.261V172.198L156.072 201.453C158.75 204.131 158.75 208.473 156.072 211.151C153.394 213.829 149.053 213.829 146.375 211.151L126.817 191.594V225.143C126.817 228.93 123.748 232 119.961 232C116.174 232 113.103 228.93 113.103 225.143V191.412L93.3641 211.151C90.6863 213.829 86.3437 213.829 83.6659 211.151C80.9881 208.473 80.988 204.131 83.6659 201.453L113.103 172.017V151.261C106.508 149.821 100.672 146.35 96.2879 141.532L78.326 151.903L67.5516 192.114C66.5714 195.772 62.8112 197.943 59.1532 196.963C55.4953 195.983 53.3244 192.222 54.3045 188.564L61.5301 161.601L32.3172 178.466C29.0376 180.359 24.8445 179.235 22.951 175.955C21.0579 172.676 22.1807 168.483 25.4598 166.589L54.5145 149.814L27.7997 142.656C24.1417 141.676 21.971 137.916 22.951 134.258C23.9312 130.6 27.6906 128.429 31.3485 129.409L71.3104 140.117L89.4413 129.648C88.4797 126.604 87.9598 123.362 87.9598 120C87.9599 116.626 88.4832 113.375 89.451 110.321L71.2782 99.8301L31.3172 110.538C27.6593 111.518 23.8989 109.346 22.9188 105.688C21.9387 102.031 24.1096 98.2703 27.7674 97.29L54.4813 90.1318L25.4295 73.3584C22.1501 71.4648 21.0263 67.2708 22.9198 63.9912C24.8134 60.7117 29.0074 59.588 32.287 61.4814L61.4989 78.3477L54.2743 51.3818C53.2944 47.7239 55.4651 43.9636 59.1229 42.9834C62.7806 42.0035 66.54 44.1744 67.5204 47.832L78.2958 88.0449L96.3094 98.4453C100.692 93.6399 106.519 90.1769 113.103 88.7393V67.9824L83.6669 38.5459C80.9891 35.868 80.989 31.5265 83.6669 28.8486C86.3447 26.1712 90.6864 26.171 93.3641 28.8486L113.103 48.5879V14.8574C113.104 11.0706 116.174 8 119.961 8ZM119.96 101.714C109.861 101.714 101.674 109.901 101.674 120C101.674 123.189 102.49 126.188 103.926 128.798C103.989 128.896 104.05 128.996 104.109 129.099C104.169 129.201 104.225 129.305 104.278 129.409C107.476 134.728 113.302 138.286 119.96 138.286C126.484 138.286 132.209 134.869 135.445 129.728C135.536 129.527 135.638 129.329 135.75 129.135C135.866 128.934 135.99 128.741 136.122 128.557C137.476 126.003 138.245 123.092 138.245 120C138.245 109.901 130.059 101.714 119.96 101.714Z" fill="url(#paint1_linear_36_1523)"/>
</g>
<defs>
<filter id="filter0_f_36_1523" x="-78" y="-92" width="395.86" height="424" filterUnits="userSpaceOnUse" color-interpolation-filters="sRGB">
<feFlood flood-opacity="0" result="BackgroundImageFix"/>
<feBlend mode="normal" in="SourceGraphic" in2="BackgroundImageFix" result="shape"/>
<feGaussianBlur stdDeviation="50" result="effect1_foregroundBlur_36_1523"/>
</filter>
<linearGradient id="paint0_linear_36_1523" x1="-7.37892" y1="254.4" x2="246.413" y2="42.1398" gradientUnits="userSpaceOnUse">
<stop stop-color="#004166"/>
<stop offset="1" stop-color="#00A4FF"/>
</linearGradient>
<linearGradient id="paint1_linear_36_1523" x1="-7.37887" y1="254.4" x2="246.413" y2="42.1403" gradientUnits="userSpaceOnUse">
<stop stop-color="#004166"/>
<stop offset="1" stop-color="#00A4FF"/>
</linearGradient>
<clipPath id="clip0_36_1523">
<rect width="240" height="240" fill="white"/>
</clipPath>
</defs>
</svg>
